<svg xmlns="http://www.w3.org/2000/svg" width="369" height="369"><path fill="#1C5690" d="M91.821-.502q3.37-.006 6.737-.016c6.05-.014 12.099-.003 18.148.014 6.357.014 12.714.007 19.07.003q16.003-.002 32.004.034 16.415.036 32.831.021 19.86-.019 39.72.006 7.557.008 15.113 0 8.906-.006 17.811.028 3.255.008 6.509 0C298.73-.45 316.018 1.857 333 11v2l2.105.656c3.702 1.719 6.256 4.068 9.208 6.844l1.666 1.512c1.384 1.283 2.708 2.631 4.021 3.988v2h2c2.593 3.494 4.754 7.276 7 11l1.43 2.242c7.031 11.574 8.732 24.91 8.697 38.195l.005 2.783c.004 3.061 0 6.123-.003 9.184l.006 6.605q.005 8.953 0 17.907c-.003 6.253 0 12.507 0 18.76q.004 16.762-.006 33.526a33832 33832 0 0 0 .001 30.353q.01 17.648.005 35.297-.003 9.333.001 18.666.004 8.779-.005 17.557 0 3.216.002 6.431.002 4.402-.006 8.803l.007 2.549c-.03 9.05-.813 17.492-3.759 26.08l-.808 2.365c-2.34 6.559-5.335 12.144-9.567 17.697l-2.246 3.016C340.852 352.173 324.004 362.404 305 366c-11.245 1.29-22.523 1.142-33.822 1.13q-3.12.001-6.238.005-8.42.005-16.84 0c-5.895-.003-11.79 0-17.684 0q-14.842.003-29.686-.005-17.124-.007-34.248.002-14.742.007-29.484.003-8.787-.003-17.574.001-8.265.004-16.528-.005-3.02 0-6.04.002c-28.823.028-28.823.028-39.356-3.258l-2.16-.656C48.387 360.993 42.23 357.817 36 354l-2.8-1.71c-4.493-2.865-4.493-2.865-6.2-4.29v-2h-2v-2l-4-2v-2h-2l-2-5h-2c-2-3-2-3-2-6h-2q-1.694-4.029-3.375-8.063l-.96-2.279c-6.64-15.976-6.96-31.83-6.924-48.853l-.01-6.323c-.01-5.685-.006-11.371 0-17.057.005-5.973 0-11.945-.002-17.918q-.006-15.04.01-30.08.015-17.344-.003-34.692-.014-14.937-.006-29.876.007-8.903-.003-17.804a5400 5400 0 0 1 .01-16.745q.004-3.059-.002-6.116c-.027-13.611.06-27.012 4.64-40.007l1.316-3.742A170 170 0 0 1 11 37h2l2-6h2l.703-1.688C21.414 22.695 28.362 16.652 35 13h2v-2a381 381 0 0 1 6.438-3.25l1.736-.91C59.954-.36 75.747-.58 91.82-.502M73 40v2l-1.812.375c-2.45.58-2.45.58-5.188 2.625v2h-2c-6.113 8.827-5.68 17.855-5.568 28.118q.003 2.736-.002 5.472c-.001 4.927.028 9.854.063 14.78.031 5.16.034 10.317.04 15.476.016 9.757.057 19.513.107 29.27.056 11.112.083 22.225.108 33.337.053 22.85.14 45.698.252 68.547q2.157-.465 4.313-.938l2.425-.527c2.407-.534 2.407-.534 5.262-1.535 12.245-1.1 25.445-1.037 36 6 2.646.229 5.195.349 7.844.379l2.32.051c2.445.054 4.89.094 7.336.132q3.668.066 7.337.143 2.28.049 4.564.08c3.12.061 5.617.221 8.599 1.215v8c-2.79.93-4.765 1.187-7.668 1.316l-2.705.127-2.814.12-2.85.13q-3.48.159-6.963.307l2 4h2l.82 2.242c1.123 2.624 2.374 4.592 4.055 6.883 5.789 8.542 7.784 17.766 9.125 27.875a141 141 0 0 0 5-5v-2h2a86 86 0 0 0 3.938-4.75l2.09-2.672L155 281l1.754-2.203c1.436-1.706 1.436-1.706 1.246-3.797h2c3.025-3.056 3.025-3.056 4-7h2l2-5h2c2.398-2.637 2.398-2.637 3-6h2c1.582-1.484 1.582-1.484 3.125-3.375l1.633-1.898c1.437-1.643 1.437-1.643 1.242-3.727h2c1.816-1.944 1.816-1.944 3.625-4.375l1.914-2.46c1.648-2.006 1.648-2.006 1.461-4.165h2c1.796-2.24 3.41-4.578 5.05-6.934 2.344-2.483 3.577-2.873 6.95-3.066 2.035.383 2.035.383 4.063 1.125l2.312.84A548 548 0 0 1 225 235c2.912-3.67 2.912-3.67 4-8h2c1.3-1.74 2.515-3.546 3.688-5.375a340 340 0 0 1 10.062-14.664c1.43-1.855 1.43-1.855 1.25-3.961h2l2-6h2c2.316-3.221 2.316-3.221 3-7h2l2-6h2a136 136 0 0 0 4.625-6.813q1.341-2.06 2.688-4.117l1.359-2.077c2.958-4.439 6.144-8.715 9.328-12.993l-2.332-1.86a332 332 0 0 1-5.355-4.39c-2.095-1.951-2.095-1.951-4.313-1.75v-2h-2v-2h-2v-2h-2v-2h-2c-.37-6.526-.37-6.526 1.25-8.605 1.914-1.526 3.696-2.44 5.945-3.403l2.418-1.05 2.512-1.067q2.475-1.064 4.945-2.133l2.212-.942c1.708-.676 1.708-.676 2.718-1.8.087-1.927.107-3.857.098-5.785l-.01-3.545-.025-3.733-.014-3.744Q281.03 101.597 281 97l-3.437-.044c-4.244-.059-8.488-.136-12.731-.218q-2.745-.051-5.49-.084a963 963 0 0 1-7.932-.142l-2.444-.02c-7.124-.18-13.754-1.92-19.966-5.492-1.125-2.25-1.125-2.25-2-5l-1.029-2.561c-1.257-4.453-1.325-8.606-1.385-13.212l-.059-2.8c-.06-2.934-.106-5.868-.152-8.802l-.117-5.988Q224.115 45.317 224 38q-27.76-.07-55.52-.104a17576 17576 0 0 1-25.78-.047q-11.238-.03-22.476-.037-5.947-.003-11.895-.023-5.604-.02-11.209-.015c-2.016-.001-4.033-.012-6.05-.023-6.382.015-11.97.323-18.07 2.249m207 183a153 153 0 0 0-3.562 4.812c-2.23 3.114-4.463 6.222-6.747 9.297l-2.191 2.953-2.031 2.723c-1.653 2.05-1.653 2.05-1.469 4.215h-2c-1.548 2.107-1.548 2.107-3.125 4.812-3.203 5.206-6.686 10.1-10.371 14.973-1.691 2.045-1.691 2.045-1.504 4.215h-2a263 263 0 0 0-4 5c-3.521 1.76-6.648 1.431-10.362.246a258 258 0 0 1-8.013-3.246l-2.809-1.156A912 912 0 0 1 213 269l-1 2h-2c-3.025 3.056-3.025 3.056-4 7h-2v2h-2c-1.438 1.763-2.8 3.588-4.125 5.437a157 157 0 0 1-10.836 13.282c-5 5.593-9.688 11.454-14.181 17.46l-1.625 2.172L170 320q17.786.106 35.571.155c5.507.016 11.013.037 16.519.071 5.317.033 10.633.05 15.95.059q3.038.008 6.076.032c2.844.022 5.687.025 8.53.024l2.52.032c7.24-.038 13.984-1.665 19.462-6.78 7.61-8.832 7.033-18.873 6.86-29.85q-.014-2.637-.021-5.272c-.02-4.593-.068-9.186-.124-13.779-.051-4.7-.074-9.399-.099-14.098A4867 4867 0 0 0 281 223z"/><path fill="#5DCB4B" d="M332 104v2h2q.219 9.594.427 19.19.072 3.246.146 6.492c.272 11.928.48 23.855.52 35.787l.02 3.119.002 2.863.006 2.523C335 178 335 178 334 180c-5.371.273-8.587.404-13-3l-1.387-1.434c-1.757-1.705-3.555-2.99-5.613-4.316l-2.062-1.36c-2.08-1.223-2.08-1.223-4.938.11-1.878 2.3-1.878 2.3-3.73 5.18l-2.186 3.257-2.272 3.438a4857 4857 0 0 1-4.417 6.617l-2.191 3.306c-2.132 3.098-4.406 6.03-6.724 8.991-3.504 4.77-4.407 7.899-3.98 13.711.039 8.728-2.824 12.903-8.5 19.5-2.084 2.929-4.05 5.937-6.03 8.938-.94 1.389-1.95 2.73-2.97 4.062h-2l-.797 2.203c-1.22 2.838-2.642 5.051-4.453 7.547-2.97 4.13-5.772 8.332-8.488 12.633L247 271h-2l-.75 1.813c-1.486 2.6-2.63 3.731-5.25 5.187-6.016.798-10.799-1.725-16.187-4.062a586 586 0 0 0-5.356-2.286l-2.376-1.031c-2.243-.886-2.243-.886-5.081.379-1.108 1.883-1.108 1.883-2 4l-2 3h-2v2h-2l-.82 1.758c-4.449 8.455-11.922 15.964-18.35 23.004-1.99 2.33-1.99 2.33-3.859 5.563-2.961 4.583-5.875 8.84-11.366 10.321-6.886.858-13.82.419-20.73.041-13.602-1.39-13.602-1.39-26.116 2.421-2.378 2.568-2.378 2.568-4.063 5.337C111.997 335.525 101.93 339.586 94 342c-15.744 3.179-29.17-.383-43-8v-2l-1.687-.687c-9.96-5.654-15.834-17.055-19.395-27.481-3.761-15.7-.533-30.477 7.715-44.066L39 258h2l.75-1.875c1.456-2.476 2.628-3.076 5.25-4.125v-2c12.806-10.49 25.503-13.23 41.628-12.245 6.58.68 12.852 2.565 18.372 6.245 2.634.217 5.172.325 7.809.344l2.312.044c2.439.047 4.878.08 7.317.112q4.81.063 9.62.156l2.23.016c3.717.072 6.552.271 9.712 2.328v8c-2.944 1.671-5.174 2.277-8.547 2.414l-2.558.117-2.645.094-2.691.117q-3.279.141-6.559.258l1 3h2c8.39 10.185 12.63 22.238 15 35l1.875-2.5L145 291h2l.746-1.68c1.495-2.765 3.32-5.018 5.316-7.445 2.742-3.26 2.742-3.26 4.938-6.875h2l.875-1.812C162 271 162 271 164 268h2l2-5h2l.938-1.875L173 257h2l.75-1.687c1.48-2.737 3.185-4.99 5.25-7.313h2l.688-1.562c1.794-3.333 3.812-6.585 6.312-9.438h2l.688-1.625c2.152-3.894 4.452-7.497 8.562-9.437 8.193.186 16.355 4.896 23.75 8.062l4-7h2l.621-1.957c1.949-4.3 4.677-7.918 7.441-11.73a3764 3764 0 0 0 3.286-4.575l1.469-2.03c1.24-1.705 1.24-1.705 2.183-3.708h2l2-6h2l.938-2.375C254 192 254 192 255 190h2l.438-1.875C258 186 258 186 259 184h2l.7-2.07c1.601-3.609 3.784-6.643 6.113-9.805l1.29-1.777q1.287-1.771 2.58-3.538c2.127-2.922 4.22-5.867 6.317-8.81l-2.406-1.68-3.094-2.195c-1.02-.72-2.042-1.439-3.094-2.18L267 150v-2h-2v-2h-2v-2h-2v-2h-2c-.75-3.25-.75-3.25-1-7 3.154-4.32 7.79-5.972 12.563-8l2.465-1.073c4.074-1.754 8.153-3.413 12.347-4.865 5.306-1.842 10.385-4.127 15.5-6.437l2.633-1.187c3.824-1.734 7.63-3.488 11.39-5.356 6.035-2.96 10.342-4.877 17.102-4.082"/><path fill="#FDBD22" d="M107 244c2.634.217 5.172.325 7.809.344l2.312.044c2.439.047 4.878.08 7.317.112q4.81.063 9.62.156l2.23.016c3.717.072 6.552.271 9.712 2.328v8c-2.944 1.671-5.174 2.277-8.547 2.414l-2.558.117-2.645.094-2.691.117q-3.279.141-6.559.258l1 3h2c7.466 9.065 12.473 20.313 14.125 31.875l.508 3.492L141 299h-2l-.375 3.188c-.74 5.957-1.694 11.882-2.625 17.812l-2.309-.133c-6.567.004-6.567.004-12.105 3.18a271 271 0 0 0-4.313 5.312C110.175 336.604 98.647 341.572 88 343c-13.818 1.032-24.977-2.378-37-9v-2l-1.687-.687c-9.96-5.654-15.834-17.055-19.395-27.481-3.761-15.7-.533-30.477 7.715-44.066L39 258h2l.75-1.875c1.456-2.476 2.628-3.076 5.25-4.125v-2c16.104-13.191 41.659-18.228 60-6"/><path fill="#FBBF26" d="M107 244c2.634.217 5.172.325 7.809.344l2.312.044c2.439.047 4.878.08 7.317.112q4.81.063 9.62.156l2.23.016c3.717.072 6.552.271 9.712 2.328v8c-2.944 1.671-5.174 2.277-8.547 2.414l-2.558.117-2.645.094-2.691.117q-3.279.141-6.559.258l1 3h2c7.466 9.065 12.473 20.313 14.125 31.875l.508 3.492L141 299h-2l-.375 3.188c-.74 5.957-1.694 11.882-2.625 17.812l-2.309-.133c-6.567.004-6.567.004-12.105 3.18a271 271 0 0 0-4.313 5.312C110.175 336.604 98.647 341.572 88 343c-13.818 1.032-24.977-2.378-37-9v-2l-1.687-.687c-9.96-5.654-15.834-17.055-19.395-27.481-3.761-15.7-.533-30.477 7.715-44.066L39 258h2l.75-1.875c1.456-2.476 2.628-3.076 5.25-4.125v-2c16.104-13.191 41.659-18.228 60-6m-52 16v2h-2v2h-2c-7.272 7.955-9.659 17.733-9.461 28.24.34 7.234 2.155 13.377 5.461 19.76h2l.246 1.75c1.895 5.655 8.71 9.93 13.816 12.625 9.673 4.295 20.518 5.52 30.56 1.691 4.877-2.186 9.641-4.59 14.378-7.066v-3h2v-2h2c1.534-2.004 1.534-2.004 3-4.562l1.563-2.567c4.64-9.268 4.97-20.927 2.75-30.984A41.3 41.3 0 0 0 116 271l-1.215-2.094C109.545 261.008 100.404 253.92 91 252c-13.187-2.055-25.29-.507-36 8"/><path fill="#1C548C" d="m115.348 77.762 2.561-.025q2.695-.02 5.39-.032c2.728-.017 5.455-.061 8.183-.105q2.62-.015 5.24-.026l2.451-.053c6.776.026 11.985 1.944 17.07 6.479l1.632 2 1.68 2c3.572 4.944 3.81 8.759 3.82 14.75l.074 2.344c.03 5.976-1.464 9.739-4.449 14.906h-2l-.687 1.875c-1.696 2.745-3.342 3.06-6.313 4.125l1.172 1.688c4.136 6.06 8.213 12.068 9.828 19.312h2c1.604 2.547 2.064 3.614 1.559 6.645-.185.777-.37 1.554-.559 2.355a440 440 0 0 1-7.75.25l-2.21.102c-3.442.062-5.556 0-8.38-2.055a56 56 0 0 1-4.472-7.297l-1.56-2.898a306 306 0 0 1-3.288-6.454l-1.715-3.273-1.523-3.04c-2.354-2.615-2.987-2.746-6.329-3.17-1.245-.055-2.49-.11-3.773-.165.01.777.02 1.554.032 2.355.041 3.507.067 7.013.093 10.52l.05 3.707.02 3.535.032 3.27C123 154 123 154 121 156c-2.969.23-2.969.23-6.5.188l-3.531-.02C108 156 108 156 106 155q-.034-14.838-.052-29.676-.007-6.888-.023-13.778-.016-6.643-.02-13.285-.003-2.54-.01-5.08a2183 2183 0 0 1-.009-7.09l-.01-2.144c.015-7.397 2.925-6.127 9.472-6.185M123 95v18l6.625.125 3.727.07c4.696-.251 8.347-.768 11.585-4.32 1.542-4.17 1.112-6.538.063-10.875-1.816-2.122-3.233-2.911-6.014-3.232-2.421-.064-4.815-.029-7.236.044z"/><path fill="#21568D" d="M212.223 100.027 214 101l2 1v2h2c6.21 8.15 7.537 17.1 6.754 27.164-.906 6.331-2.561 11.302-5.754 16.836h-2l-.797 1.86c-2.068 3.68-5.311 5.015-9.203 6.14-6.649.615-12.863.89-19-2l-.06 1.896a1596 1596 0 0 1-.315 8.479l-.094 2.984-.117 2.852-.095 2.634C187 175 187 175 185 177c-3.223.23-3.223.23-7.062.188l-3.848-.02C171 177 171 177 170 176c-.1-2.398-.136-4.767-.13-7.166l-.005-2.271q-.004-3.735.002-7.47l-.003-5.167q-.001-5.423.006-10.844.006-6.967-.004-13.933-.005-5.338 0-10.675 0-2.57-.002-5.139-.003-3.585.007-7.169l-.007-2.166c.022-4.886.022-4.886 1.136-6 2.31-.126 4.624-.176 6.938-.187l3.84-.043C185 98 185 98 187 100l2.813-1.5c7.664-3.236 15.153-2.134 22.41 1.527M189 114c-3.59 4.711-3.394 9.343-3 15l.25 3.813c.852 3.622 1.862 4.912 4.75 7.187 3.228 1.614 6.51 1.583 10 1 3.35-2.404 4.72-4.366 6.375-8.125 1.012-6.273 1.054-12.283-2.062-17.937-5.514-4.62-10.334-4.66-16.313-.938"/><path fill="#B3D3EB" d="M224 38c5.3 1.573 8.284 3.811 12 7.813 3.82 4.024 7.688 7.689 12 11.187 2.375 2.188 2.375 2.188 4 4v2h2v2h2v2h2v2l1.637.652c3.202 1.826 5.614 4.302 8.176 6.91l1.598 1.622c11.537 11.853 11.537 11.853 11.658 16.443L281 97q-8.084.112-16.168.165-2.745.022-5.49.061c-2.644.037-5.288.054-7.932.067-.806.015-1.613.03-2.444.047-7.005.002-13.349-1.178-18.841-5.715-4.175-5.157-6.259-9.294-6.239-15.935v-2.547l.016-2.721.005-2.808c.005-2.955.018-5.91.03-8.864q.008-3.007.014-6.016.017-7.367.049-14.734"/><path fill="#FDBF23" d="M107 245q7.366-.075 14.734-.11 2.505-.016 5.01-.04c2.404-.025 4.806-.036 7.21-.045l2.257-.032c3.758 0 6.6.123 9.789 2.227v8c-2.944 1.671-5.174 2.277-8.547 2.414l-2.558.117-2.645.094-2.691.117q-3.279.141-6.559.258l1 3h2c7.466 9.065 12.473 20.313 14.125 31.875l.508 3.492L141 299h-2l-.375 3.188c-.74 5.957-1.694 11.882-2.625 17.812l-2.414-.027c-6.255.026-6.255.026-11.719 2.652-1.445 1.731-2.714 3.438-3.867 5.375l-3-3 2-6-2-1c0-2.66.29-4.68.875-7.25l.492-2.203c.485-1.951 1.063-3.88 1.68-5.793 2.391-9.418 2.43-20.924-1.824-29.77-1.813-2.942-3.912-5.417-6.223-7.984v-2l-1.625-.687c-3.224-1.782-5.671-3.794-8.375-6.313v-3c3.233-2.155 4.252-2.469 8-2l1.5 1.563L111 254c2.655-.23 2.655-.23 5-1v3l5-1-1.777-.812c-2.238-1.196-3.9-2.5-5.785-4.188-2.108-1.877-4.071-3.422-6.438-5"/><path fill="#194F89" d="m95.118 195.86 3.284-.018 3.62-.003 3.798-.015q5.166-.018 10.333-.024l6.451-.012q10.087-.02 20.175-.027 11.655-.007 23.31-.05 9.002-.033 18.005-.034 5.38 0 10.76-.025c3.998-.02 7.997-.015 11.995-.008l3.613-.028c1.087.005 2.174.01 3.293.017l2.867-.005c2.378.372 2.378.372 4.182 1.707 1.858 2.587 1.582 4.578 1.196 7.665-1.196 1.663-1.196 1.663-3 3-2.375.38-2.375.38-5.238.388l-3.288.03-3.609-.014-3.8.02q-5.16.022-10.32.012c-2.87-.003-5.74.003-8.61.009q-10.156.02-20.311.001c-6.989-.011-13.977.003-20.966.03q-8.997.032-17.992.022-5.376-.006-10.75.017c-3.994.018-7.987.004-11.981-.013l-3.609.029-3.288-.03h-2.863C90 208 90 208 88.161 206.199c-1.74-3.294-1.026-5.674-.161-9.199 2.53-1.265 4.284-1.132 7.118-1.14"/><path fill="#DBE5EC" d="M280 208h1c1.379 14.188 1.379 14.188-3.437 20.625Q275.284 231.316 273 234c-2.082 2.93-4.05 5.937-6.03 8.938-.94 1.388-1.95 2.73-2.97 4.062h-2l-.797 2.203c-1.22 2.838-2.642 5.051-4.453 7.547-2.97 4.13-5.772 8.332-8.488 12.633L247 271h-2l-.75 1.813c-1.486 2.6-2.63 3.731-5.25 5.187-6.016.798-10.799-1.725-16.187-4.062a586 586 0 0 0-5.356-2.286l-2.376-1.031c-2.243-.886-2.243-.886-5.081.379-1.108 1.883-1.108 1.883-2 4l-2 3h-2v2h-2l-.82 1.758c-3.849 7.314-10.066 13.58-15.492 19.775-2.629 3.01-5.15 6.038-7.52 9.256-6.627 8.813-6.627 8.813-11.3 10.02-2.754.003-5.187-.202-7.868-.809l2-1v-3h2l.813-1.687c1.296-2.525 2.612-4.95 4.187-7.313h2l.746-1.715c1.47-2.677 3.232-4.615 5.316-6.848 3.994-4.355 7.756-8.84 11.473-13.433 3.343-4.074 6.775-8.067 10.216-12.058l1.452-1.684 1.428-1.628c1.398-1.623 1.398-1.623 2.629-3.42 1.224-1.694 1.224-1.694 3.74-4.214 4.55-.05 8.607 1.847 12.813 3.5l3.457 1.344C226 268 226 268 227 269c5.836.662 5.836.662 10.75-2.125 2.322-2.888 2.322-2.888 4.438-6.187L244 258h2l.813-2.2c1.174-2.769 2.526-5.11 4.187-7.613l1.563-2.394L254 244h2l.297-1.71c.862-2.808 2.181-4.57 3.953-6.915l2.148-2.883c.405-.54.81-1.08 1.226-1.638 2.788-3.757 5.514-7.56 8.251-11.354l1.731-2.393 1.636-2.263 1.465-2.026c1.127-1.585 2.214-3.2 3.293-4.818"/><path fill="#38699B" d="m95.345 219.707 2.254.002 2.376-.02c2.6-.019 5.199-.023 7.798-.025l5.411-.02q5.678-.017 11.354-.015c4.852 0 9.702-.027 14.554-.061 3.726-.022 7.453-.026 11.18-.025q2.683-.004 5.365-.027c2.502-.02 5.003-.014 7.505-.002l2.242-.034c3.436.042 5.313.297 8.115 2.355C175 224 175 224 174.875 227.125 174 230 174 230 172 232a94 94 0 0 1-7.707.29l-2.41.02c-2.637.02-5.273.024-7.91.026l-5.486.02q-5.754.017-11.507.015c-4.921 0-9.842.027-14.763.061-3.777.022-7.554.026-11.331.025q-2.723.004-5.444.027c-2.536.02-5.07.014-7.606.002l-2.281.034c-3.286-.04-5.083-.087-7.556-2.355-1.41-3.057-.9-4.98.001-8.165 2.485-2.485 3.953-2.25 7.345-2.293"/><path fill="#E5940A" d="M105.688 259.125c7.279 6.016 13.283 14.496 14.612 24.026.137 2.23.167 4.428.138 6.661l-.02 2.38c-.237 8.907-2.764 16.835-8.418 23.808h-2v2h-2v3c-11.522 6.569-21.776 11.321-35.418 8.5-2.27-.707-4.404-1.545-6.582-2.5l-2.531-1.066C57.749 323.324 52.716 320.192 49 315v-3h-2a560 560 0 0 1-1.937-4.187l-1.09-2.356c-4.304-10.87-2.827-23.18 1.543-33.687 1.565-2.921 3.249-5.325 5.484-7.77h2v-2h2v-2c14.96-11.882 35.356-11.819 50.688-.875M55 265v2h-2c-6.783 8.994-9.02 17.868-8 29 1.38 6.59 4.57 12.266 8 18h2v2h2v2c2.04 1.532 2.04 1.532 4.625 3l2.602 1.563c8.723 4.52 18.84 5.04 28.273 2.492 10.197-4.054 17.706-10.573 22.313-20.68 3.467-9.856 2.832-19.654-.813-29.375-2.026-3.321-4.368-6.144-7-9l-2.312-2.75C89.803 250.789 69.21 252.453 55 265"/><path fill="#E6910B" d="m58 270 9.313-.062 2.923-.028 2.315-.008 2.364-.016C77 270 77 270 80 271v2h2c2.474 3.71 2.696 7.693 2 12-1.746 3.143-3.469 5.469-6 8l1.313 2.3c.556.995 1.113 1.989 1.687 3.012l1.688 2.989C84 304 84 304 84 307h-8l-1.137-2.59-1.55-3.348c-.5-1.102-.998-2.204-1.512-3.34L70 295l-5-1v13h-7z"/><path fill="#FDBD22" d="M65 294h5q1.507 2.684 3 5.375l1.688 3.023C76 305 76 305 76 307h8l1-4h1l1 13 7 1v-13h1v13l3 1c1.688 1.563 1.688 1.563 3 3-10.03 5.319-19.94 7.046-31.031 4.23-4.705-1.778-9.021-4.113-12.969-7.23v-2h-2v-2h-2l1-6c3.674-1.176 7.17-1.074 11-1z"/><path fill="#E7910B" d="M108.5 282.813c2.892 4.217 2.843 8.127 2.5 13.187-.825 2.466-1.852 4.656-3 7h-2v2H95l-1 12h-7v-36c16.697-1.67 16.697-1.67 21.5 1.813"/><path fill="#275B91" d="m151 124 2 1-3 1 1.172 1.688c4.136 6.06 8.213 12.068 9.828 19.312h2c1.604 2.547 2.064 3.614 1.559 6.645-.185.777-.37 1.554-.559 2.355a440 440 0 0 1-7.75.25l-2.21.102c-3.418.062-5.55.002-8.36-2.028a65 65 0 0 1-4.805-7.762l-1.508-2.808A87 87 0 0 1 136 136l5 2v-2h2l2-6h3v-5z"/><path fill="#1A4770" d="M123 321c2.401-.37 2.401-.37 5.48-.36l3.527-.013 3.888.032q2.04 0 4.08 0c3.698-.002 7.396.016 11.094.037 3.862.019 7.725.02 11.587.024 7.317.01 14.634.034 21.95.064 8.33.033 16.658.05 24.987.065 17.136.031 34.271.084 51.407.151v2l-3.276-.013q-15.274-.062-30.547-.09-7.853-.015-15.705-.048-7.576-.032-15.153-.039-2.892-.004-5.784-.021a1416 1416 0 0 0-8.095-.016l-2.421-.022c-3.919.015-6.614.315-10.019 2.249a297 297 0 0 1-6-2c-2.968-.277-5.92-.234-8.898-.195l-2.53.008c-2.65.011-5.298.036-7.947.062q-2.705.016-5.41.027-6.608.035-13.215.098l1 7-4 3-2-3-.562 1.875c-2.17 3.207-4.752 3.265-8.438 4.125a496 496 0 0 0-6 2v2l-9 3-2.867 1.105c-4.61 1.317-8.944.886-13.695.672-3.849.25-6.095 1.377-9.438 3.223-2.687.188-2.687.188-5 0h-3v-4l-1.812-.812c-2.185-1.186-3.483-2.409-5.188-4.188-2.763-1.984-2.763-1.984-5.125-2.875C49 335 49 335 48.25 332.875L48 331l3 1v2l2.621.84c4.26 1.463 8.346 3.247 12.477 5.039 11.706 4.522 25.43 2.757 36.742-2.098 7.826-3.951 15.256-9.425 20.16-16.781"/><path fill="#C2D9E9" d="M107 245q7.366-.075 14.734-.11 2.505-.016 5.01-.04c2.404-.025 4.806-.036 7.21-.045l2.257-.032c3.758 0 6.6.123 9.789 2.227v8c-3.13 1.83-5.376 2.24-8.984 2.195l-2.832-.02-2.934-.05-2.98-.027A994 994 0 0 1 121 257v-2l-1.777-.812c-2.238-1.196-3.9-2.5-5.785-4.188-2.108-1.877-4.071-3.422-6.438-5"/><path fill="#D7DEDB" d="M127 265c8.171 7.004 11.639 17.471 13.125 27.875l.508 3.492L141 299h-2l-.375 3.188c-.74 5.957-1.694 11.882-2.625 17.812h-12l1.875-3.687c4.337-8.72 6.47-16.651 6.313-26.375l-.002-2.315A86 86 0 0 0 131 274h-2z"/><path fill="#335E88" d="M227 36v3H78l1-3q28.281-.231 56.562-.443 13.13-.098 26.261-.205 11.443-.095 22.885-.177 6.06-.044 12.121-.096 5.701-.049 11.403-.086 2.096-.014 4.19-.035 2.858-.026 5.712-.04l3.232-.025C224 35 224 35 227 36"/><path fill="#758EAE" d="m95.138 195.88 3.297-.004 3.634.01h3.813q5.185.001 10.37.013 5.415.007 10.83.008 10.259.005 20.516.021 11.678.016 23.354.022 24.024.016 48.048.05v1l-127 1-1 7c2.504 1.252 4.22 1.139 7.024 1.158l3.221.03 3.548.017 3.725.03q5.064.04 10.128.068c3.526.022 7.052.05 10.578.076q10.02.074 20.038.138 11.406.076 22.81.16 23.464.17 46.928.323v1q-25.151.141-50.303.207-11.677.028-23.356.095-10.176.06-20.353.074c-3.594.006-7.187.018-10.78.047-4.01.032-8.017.033-12.026.031l-3.622.044-3.302-.017-2.874.011C90 208 90 208 88.16 206.2c-1.737-3.295-1.025-5.675-.16-9.2 2.539-1.27 4.295-1.123 7.138-1.12"/><path fill="#3C6288" d="M69 0h230v1c-7.396 1.853-14.125 2.05-21.678 1.571-10.603-.585-21.173-.742-31.79-.776l-5.832-.03q-7.804-.04-15.61-.068-8.197-.035-16.395-.076-15.474-.074-30.948-.138-17.637-.076-35.275-.16Q105.236 1.154 69 1z"/><path fill="#6BC166" d="m274 128-1 3c-2.18.914-2.18.914-4.875 1.625l-2.68.727L263 134l-3 1v4h4v3l2-1c.652-2.025.652-2.025 1-4h2l-.125 2.875c-.225 3.227-.225 3.227 2.125 5.125 2.069.643 2.069.643 4 1v2l6-1 1 3 3 1c-.35 3.242-.562 4.615-3.062 6.813L280 159c-2.75-1.375-5.124-3.15-7.625-4.937l-3.04-2.153L267 150v-2h-2v-2h-2v-2h-2v-2h-2c-.75-3.25-.75-3.25-1-7 3.005-4.781 10.562-8.813 16-7"/><path fill="#0F4F61" d="M334 110h1c.671 16.396 1.118 32.787 1.177 49.198q.01 2.55.031 5.1c.018 2.396.022 4.791.022 7.186l.022 2.174c-.017 3.679-.153 5.193-2.252 8.342-2.094.766-2.094.766-4.5 1.25l-2.406.516C325 184 325 184 323 183v-2h-3v-2l-4-1v-3l-2-1v-2c-2.882.09-2.882.09-6 1-2.053 2.314-2.053 2.314-3.562 5.25-2.481 4.24-4.76 7.517-8.438 10.75l-2-1q2.37-3.596 4.75-7.187l1.344-2.042c2.48-3.737 5.035-7.316 7.906-10.771a45.4 45.4 0 0 1 13 7v2c4.586 2.15 7.538 2.317 13 3z"/><path fill="#425E86" d="m115.559 77.832 2.604-.01q2.732-.007 5.465-.007c2.794-.002 5.588-.02 8.382-.04q2.649-.005 5.299-.005l2.544-.022c5.918.023 5.918.023 8.147 2.252l-2.551-.016q-4.727-.025-9.455-.039-2.037-.008-4.076-.02c-1.963-.013-3.927-.018-5.89-.023l-3.571-.016c-5.282.174-10.28 1.078-15.457 2.114l1 69c4.596 2.67 4.596 2.67 13 2l1-25h1c.058 4.292.094 8.583.125 12.875l.05 3.707.02 3.535.032 3.27C123 154 123 154 121 156c-2.969.23-2.969.23-6.5.188l-3.531-.02C108 156 108 156 106 155q-.034-14.838-.052-29.676-.007-6.888-.023-13.778-.016-6.643-.02-13.285-.003-2.54-.01-5.08a2183 2183 0 0 1-.009-7.09l-.01-2.144c.016-7.495 3.084-6.106 9.683-6.115"/><path fill="#274153" d="m48 331 3 1v2l2.621.84c4.26 1.463 8.346 3.247 12.477 5.039 10.662 4.119 23.321 2.99 33.902-.879 3.786-1.818 7.386-3.866 11-6 1.327-.68 2.658-1.35 4-2v2h-2l-.687 1.938C111 337 111 337 108.375 337.75L106 338v2l-9 3-2.867 1.105c-4.61 1.317-8.944.886-13.695.672-3.849.25-6.095 1.377-9.438 3.223-2.687.188-2.687.188-5 0h-3v-4l-1.812-.812c-2.185-1.186-3.483-2.409-5.188-4.188-2.763-1.984-2.763-1.984-5.125-2.875C49 335 49 335 48.25 332.875z"/><path fill="#5D7D9E" d="m170 99 3 1-1 74h12v2h-14z"/><path fill="#D4E7E3" d="M209.773 262.148c3.457.913 6.713 2.044 10.04 3.352l3.457 1.344C226 268 226 268 227 269c6.315.415 6.315.415 12-2-.25 1.875-.25 1.875-1 4-2.498 1.874-3.633 2.05-6.75 1.625L229 272l-2 3c-10.829-3.393-10.829-3.393-15-6-.875-2.187-.875-2.187-1-4-2.423-.052-2.423-.052-5 1l-1.5 3.5-1.5 3.5c-2.687.938-2.687.938-5 1 1.707-3.13 3.651-6.044 5.813-8.875l1.394-1.867C207 262 207 262 209.773 262.148"/><path fill="#0E4174" d="m293 189 .375 1.938L294 193l2 1a418 418 0 0 1-2.875 3.5l-1.617 1.969L290 201h-2a85 85 0 0 0-2 7h-2l.563 1.938L285 212l-1 1c-.16 2.955-.26 5.89-.316 8.848l-.063 2.686q-.097 4.264-.183 8.529l-.131 5.767q-.161 7.085-.307 14.17h-1c-.179-6.652-.3-13.304-.385-19.958q-.052-3.39-.143-6.78a582 582 0 0 1-.156-9.785l-.11-3.026c-.003-8.005 2.822-12.36 7.794-18.451a149 149 0 0 0 2.438-3.625z"/><path fill="#D8E6EA" d="m180 308-4.437 5.438-2.497 3.058C171 319 171 319 170 320c-1.853.072-3.708.084-5.562.063l-3.067-.028L159 320l2-1v-3a132 132 0 0 1 5-3l2-3c2.059-.984 2.059-.984 4.438-1.75l2.37-.797C177 307 177 307 180 308"/><path fill="#FDBC23" d="M100.688 285.688C103 287 103 287 104 289c.353 6.47.353 6.47-2 10-3.625.188-3.625.188-7 0-1.724-3.448-1.495-7.23-1-11 2.264-2.935 3.094-3.232 6.688-2.312"/><path fill="#5CB870" d="M333 106h1q.219 9.594.427 19.19.072 3.246.146 6.492c.272 11.928.48 23.855.52 35.787l.02 3.119.002 2.863.006 2.523C335 178 335 178 334 180h-8l-1-2h6c1.136-3.408 1.16-6.08 1.205-9.675l.03-2.04q.046-3.336.081-6.672l.063-4.628q.082-6.089.153-12.177.077-6.213.161-12.427.162-12.19.307-24.381"/><path fill="#FDBB23" d="M65 277c7.715-.098 7.715-.098 10 0 1 1 1 1 1.25 4.438L76 285c-3.089 2.06-3.71 2.239-7.187 2.125L65 287z"/><path fill="#E0E7F0" d="m134 279 3 1c2.707 5.565 2.626 11.922 3 18h-2l-1 3-3 1z"/><path fill="#6ACB5B" d="M211.125 227.895A76 76 0 0 1 220 233c-3.576 1.238-6.337.75-10 0v2h-9l1-5-4-2c4.325-2.941 8.472-2.064 13.125-.105"/><path fill="#D4E7E0" d="M261 143c4.714.65 8.577 2.516 12.813 4.563l2.1.998q2.546 1.213 5.087 2.439l-1 8c-2.75-1.375-5.124-3.15-7.625-4.937l-3.04-2.153L267 150v-2h-2v-2h-2v-2z"/><path fill="#36669C" d="M352 30c3.796 3.508 6.291 6.866 8.688 11.438l1.761 3.308c3.765 7.9 3.765 7.9 3.176 11.629L365 58l-1-2-3-1c-1-7.75-1-7.75-1-10l-3-1-2 1v-2h-2v-3h2l-.656-1.68-.844-2.195-.844-2.18C352 32 352 32 352 30"/><path fill="#71C86E" d="m143 294 1 4h-2q-.758 3.592-1.5 7.188l-.434 2.04C139.3 310.969 139 314.142 139 318l22-1v2c-2.557 1.279-4.367 1.113-7.227 1.098l-3.125-.01-3.273-.026-3.297-.013A2490 2490 0 0 1 136 320c.418-7.221.955-14.046 3-21h2l.438-1.937C142 295 142 295 143 294"/><path fill="#15487D" d="m48 331 3 1v2l2.438.75c4.305 1.51 8.416 3.352 12.562 5.25v2l1.875.813C70 344 70 344 72 347c-1 1-1 1-3.375 1.063L66 348h-3v-4l-1.812-.812c-2.185-1.186-3.483-2.409-5.188-4.188-2.763-1.984-2.763-1.984-5.125-2.875C49 335 49 335 48.25 332.875z"/><path fill="#5B7BA1" d="M122 128h1c.058 4.292.094 8.583.125 12.875l.05 3.707.02 3.535.032 3.27C123 154 123 154 121 156c-2.969.23-2.969.23-6.5.188l-3.531-.02C108 156 108 156 106 155v-15h1l.078 2.336.172 3.039.14 3.023L108 151c4.596 2.67 4.596 2.67 13 2z"/><path fill="#E6E0C2" d="M127 265c4.33 3.85 6.656 7.723 9 13l-2 1v26h-3l.492-2.441c.6-4.201.654-8.26.633-12.497l.012-2.341c-.008-4.677-.363-9.108-1.137-13.721h-2z"/><path fill="#D0E2E7" d="m138 297 3 2h-2l-.375 3.188c-.74 5.957-1.694 11.882-2.625 17.812l-3-1c-.054-2.25-.093-4.5-.125-6.75l-.07-3.797c.18-3.181.505-4.818 2.195-7.453h2z"/><path fill="#51749B" d="m36 353 2.813.5c4.225.727 4.225.727 8.187-.5v4q2.437.755 4.875 1.5l2.742.844c2.292.745 2.292.745 4.383.656l1-2v2h2v4c-9.407-.641-18.067-5.132-26-10z"/><path fill="#3B628E" d="M136 136c7.571 3 7.571 3 10 6l-3 1 1 6 4 1 1 4h-4a2348 2348 0 0 1-3.375-6.187l-1.898-3.481c-1.424-2.747-2.648-5.437-3.727-8.332"/><path fill="#175088" d="m211 132 8 3-1 5-1-2-3 1-3-1v2l-5 1v-5l3-1z"/><path fill="#EDBD41" d="M130 274c4.46 4.46 3.286 11.935 3.33 17.892-.088 7.245-1.656 13.35-4.33 20.108h-1c-.625-3.375-.625-3.375-1-7l2-2c.398-1.988.738-3.99 1-6h2q-.211-3.72-.437-7.437l-.12-2.143c.08-3.507.08-3.507-1.443-6.42q-.061-3.5 0-7"/><path fill="#7CC970" d="M186 242c1 3 1 3 .25 5-1.25 2-1.25 2-2.687 3.375-1.788 1.68-1.788 1.68-2.938 4.625-1.826 3.371-3.3 4.25-6.625 6l-1 2h-3l3-6h2l.75-1.687c1.48-2.737 3.185-4.99 5.25-7.313h2l.938-1.875z"/><path fill="#D7B955" d="M115 326h2c-.354 2.743-.816 3.827-2.863 5.746C106.213 337.218 97.91 342.484 88 342c3-2 3-2 7-2v-2l3.188-.875c3.051-.9 5.937-1.772 8.812-3.125l1-2h3v-3h4z"/><path fill="#2C6094" d="m253 53 2 2a278 278 0 0 1-1 4c.386 2.681.386 2.681 1 5l3-1c2 2 2 2 2 6h-2v-2h-2v-2h-2v-2h-2v-2l-4-2v-2l-2-1h2v-2l4 1z"/><path fill="#97D88E" d="m267 173 2 3-2 1-1 3h-2l-.375 2.375C263 185 263 185 261 187a221 221 0 0 0-3 7h-4l1-4h2l.438-1.875C258 186 258 186 259 184h2l.75-2.125c1.41-3.245 3.229-5.978 5.25-8.875"/><path fill="#C4EACC" d="M197 274c0 4.156-1.542 7.479-4.437 10.5L191 286a249 249 0 0 0-4 6l-3-1v2h-2c1.306-2.825 2.746-5.071 4.785-7.418l1.608-1.861 1.67-1.909 1.681-1.943c3.996-4.61 3.996-4.61 5.256-5.869"/><path fill="#2F505F" d="m32 266 3 1-1.375 2.563c-3.316 7.013-3.92 12.837-3.812 20.5l.001 2.642c.031 4.538.27 8.83 1.186 13.295-2.317-1.79-2.953-2.668-3.372-5.616l.009-3.118.002-3.43.049-3.586-.01-3.54c.037-5.935.27-11.118 2.322-16.71h2z"/><path fill="#39648F" d="m195 148 .938 1.938c2.821 2.821 5.131 2.664 9.003 2.886C207 153 207 153 209 154c-2 2-2 2-5.258 2.195l-3.867-.07-3.883-.055L193 156l-1-2h2v-2l-2-1z"/><path fill="#90D285" d="m274 128-1 3c-2.18.914-2.18.914-4.875 1.625l-2.68.727L263 134l-3 1 1 7h-2c-.75-3.25-.75-3.25-1-7 3.005-4.781 10.562-8.813 16-7"/><path fill="#4572A5" d="m9 41 4 2c-.229 1.462-.484 2.92-.75 4.375l-.422 2.46C11 52 11 52 9.047 53.353 7 54 7 54 5 53z"/><path fill="#71C668" d="M208.625 259.5C211 260 211 260 213 263l-2.613-.437c-4.379.565-5.358 2.09-8.033 5.414L200.812 270a406 406 0 0 1-3.105 3.938l-1.36 1.777C195 277 195 277 192 277v-2h3v-2h2v-3a141 141 0 0 1 5-5l2-2.812c2-2.188 2-2.188 4.625-2.688"/><path fill="#285E95" d="m232 40 3 1v3l1.875-.625L239 43l2 2 2 1c.625 3.063.625 3.063 1 6-3 0-3 0-5.262-1.863l-2.425-2.45-2.45-2.425C232 43 232 43 232 40"/><path fill="#CCD4CD" d="m107 245 13 1v6l1 3c-2.927-1.338-5.168-2.857-7.562-5-2.108-1.877-4.071-3.422-6.438-5"/><path fill="#CEEBDA" d="M251 249c1.342 2.684.632 4.12 0 7v3l-1.75.25c-2.858.953-4.18 2.61-6.25 4.75h-2l3-6h2l.813-2.25c1.13-2.616 2.396-4.552 4.187-6.75"/><path fill="#CAE7D8" d="m260 236 1 3-1 2h-2l2 10-4 1-1-5-1 2h-2l2-5h2l.313-1.75c.785-2.57 1.992-4.187 3.687-6.25"/><path fill="#DDE3E2" d="M134 285c2 3 2 3 2.5 6.125L137 294l2 1c-.812 2.938-.812 2.938-2 6l-3 1z"/><path fill="#6BC660" d="m258 231 5 1c-.97 1.705-1.94 3.41-2.918 5.11a381 381 0 0 0-2.707 4.827L256 244h-2l-2 5h-1v-6l2-1 2 1 .438-1.75z"/><path fill="#91D487" d="m168 263 2 1c-1.56 4.993-4.403 9.236-8 13-2.875 1-2.875 1-5 1l1-3h2l.875-1.812C162 271 162 271 164 268h2z"/><path fill="#354850" d="m114 331 1 2h-2l-.687 1.938C111 337 111 337 108.375 337.75L106 338v2c-4.177 1.591-7.532 2.213-12 2 2.21-2.21 3.716-2.754 6.625-3.812 4.863-1.874 9.078-4.26 13.375-7.188"/><path fill="#D9E9E0" d="M261 143c3.95.628 7.199 1.865 10.813 3.563l2.957 1.378L277 149v1c-7.75 1.125-7.75 1.125-10 0v-2h-2v-2h-2v-2z"/><path fill="#2C475E" d="m48 331 3 1v2l2.438.75c4.305 1.51 8.416 3.352 12.562 5.25v1c-3.312.688-3.312.688-7 1-1.75-1.312-1.75-1.312-3-3-2.763-1.984-2.763-1.984-5.125-2.875C49 335 49 335 48.25 332.875z"/><path fill="#245279" d="m33 255 8 1v2h-2l-.812 2.313c-1.132 2.56-2.1 3.884-4.188 5.687l-.437-3.375c-.347-3.446-.347-3.446-1.563-5.625z"/><path fill="#4C74A1" d="M299 0v1c-11.006 2.757-21.794 1.797-33 1V1c22.595-1.194 22.595-1.194 33-1"/><path fill="#B7A350" d="M33 268h1c.284 3.786-.026 6.064-1.469 9.625-1.8 4.62-2.078 8.956-2.218 13.875l-.104 2.492A620 620 0 0 0 30 300h-1c-.766-21.532-.766-21.532 4-32"/><path fill="#496E96" d="M205 99c4.626-.323 7.28.155 11 3v2h2c1.625 2 1.625 2 3 4l-1 2-2-1v-2h-2l-1-4h-8v-2z"/><path fill="#6088B0" d="M317 5q2.126.682 4.25 1.375l2.39.773c2.226.804 4.27 1.75 6.36 2.852-3.006 3.006-5.824 2.596-10 3V8h-2z"/><path fill="#68CA57" d="M145 291h2l1 3 3-1c-.613 2.962-1.254 4.38-3 7h-4c-1.033-2.788-1.045-3.868-.062-6.75z"/><path fill="#89CE7C" d="M253 194c1 3 1 3-.125 5.813-2.027 3.445-4.238 6.194-6.875 9.187l-3-1c1.375-2.5 1.375-2.5 3-5h2l2-6h2z"/><path fill="#74C66A" d="M219 265h8l1 3h9c-2 2-2 2-5.625 2.375-4.781-.088-8.333-1.967-12.375-4.375z"/><path fill="#145A6F" d="m299 111 7 1c-1.588 3.177-4.805 3.868-7.937 5.188l-1.96.865c-1.674.714-3.387 1.338-5.103 1.947l-2-1c3.625-3 3.625-3 7-3v-2h2z"/><path fill="#C7A84F" d="M63 339q3.469.21 6.938.438l3.902.246C77 340 77 340 78 341c1.682.233 3.371.413 5.063.563l2.785.253L88 342v1c-8.885.35-16.558-.105-25-3z"/><path fill="#66C855" d="m168 304 2 1v2h-2l-.812 2.25c-1.14 2.64-2.282 4.606-4.188 6.75h-2v-4h3l-1-5c2.375-1.562 2.375-1.562 5-3"/><path fill="#6787AB" d="m205 136 2 3-3 6-1.5-.937c-2.407-1.023-4.116-1.31-6.687-1.563L192 142l-1-2 2.047.14c5.687.379 5.687.379 10.578-2.14z"/><path fill="#3D6593" d="m279 305 3 4c-2.75 3.875-2.75 3.875-5 5l-1 3h-2l-1-3c1.215-2.262 1.215-2.262 2.938-4.687l1.714-2.45z"/><path fill="#5C7CA4" d="m156 151 2 1-1 2c4.479-.447 4.479-.447 8-3l-1 5h-16v-1l2.313-.312c2.858-.732 3.844-1.458 5.687-3.688"/><path fill="#67C558" d="M267 137h2l-.062 2.875c-.164 3.032-.164 3.032 1.062 5.125-3.123-.486-5.996-.999-9-2-.687-2.062-.687-2.062-1-4h4v3l2-1c.652-2.025.652-2.025 1-4"/><path fill="#1F4C80" d="M119 79c4.23-.058 8.458-.094 12.688-.125l3.63-.05 3.506-.02 3.222-.032c3.035.233 5.21.945 7.954 2.227v2l-2.622-.974c-3.305-1.004-5.994-1.334-9.433-1.44l-3.36-.117-3.46-.094-3.531-.117Q123.296 80.117 119 80z"/><path fill="#405860" d="M35 316c2.929 2.824 5.584 5.722 8 9v2l1.938.875C47 329 47 329 48 331c-2.25-.125-2.25-.125-5-1-2.313-2.956-3.814-5.44-5-9h-3z"/><path fill="#BCE6C5" d="m174 301 1 4h-3l1 3-2.312 1.25c-2.625 1.709-3.991 3.16-5.688 5.75l-2-1a340 340 0 0 1 2.375-3.5l1.336-1.969L168 307h2l.875-1.875C172 303 172 303 174 301"/><path fill="#4A749F" d="M351 339a367 367 0 0 1-2.812 3.438l-1.583 1.933C345 346 345 346 342 347v-2l-2-1h2l1-2h1l1-3c2.49-1.245 3.41-.777 6 0"/><path fill="#124D88" d="m188.625 326.438 2.43.158q2.973.196 5.945.404l-1 2h-17l-1-2c3.328-1.664 6.997-.819 10.625-.562"/><path fill="#EBBB37" d="M124 320c-3.625 5.75-3.625 5.75-7 8l-2-5c2.61-3.48 4.831-3.278 9-3"/><path fill="#F1CB64" d="M91 239c6.21.444 10.605 1.915 16 5-3.827 1.144-5.318.542-9-1-2.326-.381-4.66-.725-7-1z"/><path fill="#6EC963" d="m273 208 5 3c-1.78 4.044-4.395 7.46-7 11-1-3-1-3 0-6h3z"/><path fill="#436A97" d="M192.438 111.813 194 113l-5 1-2 6-3-1-1-5c6.4-3.2 6.4-3.2 9.438-2.187"/><path fill="#567AA3" d="m68 39 5 1v2c-4.385 3-4.385 3-7 3v2h-2l-1 2v-5h3v-2h2z"/><path fill="#426B98" d="m59 358 1 2h2v4c-6.625-.75-6.625-.75-10-3v-2l7 1z"/><path fill="#50729A" d="M149 80c5.653 1.37 8.511 5.677 12 10l-3 1-2-1v-3h-2v-3l-1.937-.312L150 83z"/><path fill="#6485AA" d="M330 11h3v2l2.188.688c3.344 1.56 5.328 3.615 7.812 6.312-6.75-1.75-6.75-1.75-9-4l-2 1v-5z"/><path fill="#406998" d="M7 318c2.844.898 4.597 1.474 6.438 3.875C14 324 14 324 13.125 326.25L12 328v-2l-3-1c-1.187-3.562-1.187-3.562-2-7"/><path fill="#145467" d="m289 195 1 3-1.375 1.813c-2.003 2.696-2.25 4.89-2.625 8.187h-2l-1 3c-.978-3.644-1.331-5.36.434-8.773l2.003-2.602 1.997-2.648z"/><path fill="#174D88" d="M158 148h4v3h2l-1 3h-6z"/><path fill="#587AA4" d="m307 360 1 2c2.527.656 2.527.656 5 1v1c-5.225 1.467-9.581 2.226-15 2v-1h6l-1-3z"/><path fill="#607FA5" d="M13 330c2.875.688 2.875.688 6 2 1.438 2.5 1.438 2.5 2 5l-1 2h2l-1 3v-2h-2l-2-5h-2z"/><path fill="#49698D" d="M171 98h14v3h-12v-2z"/><path fill="#2B598A" d="m339 343 1 2h2c-.187 1.875-.187 1.875-1 4-2.562 1.25-2.562 1.25-5 2l-2-2h2l.938-1.875z"/><path fill="#E5D9A8" d="M133 285h1v20h-3z"/><path fill="#6EC563" d="m189 278 4 1-8 10-1-3h2l.375-2.437L187 281l2-1z"/><path fill="#C6E9D0" d="M206 263c0 3.992-1.12 6.499-3 10-2.687.938-2.687.938-5 1 2.285-4.09 4.957-7.464 8-11"/><path fill="#8AD27E" d="m209 227 1 2c-6.277 2.215-6.277 2.215-9.937 1.125L198 229c2.238-4.476 6.88-2.84 11-2"/><path fill="#426694" d="m171 221 3 1c.688 2.813.688 2.813 1 6-1.437 1.875-1.437 1.875-3 3-.778-3.406-1.1-6.508-1-10"/><path fill="#C2E9CD" d="m274 217 1 3c-1.75 2.375-1.75 2.375-4 5l-1.562 2.75C268 230 268 230 265 231c1.35-3.837 3.078-6.652 5.625-9.812l1.914-2.395z"/><path fill="#1B6076" d="M318 102h4v2l2 1a408 408 0 0 1-4.812 2.563l-2.708 1.44C314 110 314 110 311 109l7-4z"/><path fill="#6D8DAF" d="M205 97v1h-9v2l-8 2-1-2c6.079-3.242 11.184-3.333 18-3"/><path fill="#13497D" d="M127 325c.25 2.313.25 2.313 0 5-2 1.813-2 1.813-4 3l-2-5c2.625-3 2.625-3 6-3"/><path fill="#5CB866" d="m294 184 3 1q-1.931 2.724-3.875 5.438l-2.18 3.058C289 196 289 196 287 197c.25-2.375.25-2.375 1-5 2.063-1.312 2.063-1.312 4-2v-3h2z"/><path fill="#224469" d="m66 341 10 2v3c-2.187.313-2.187.313-5 0-2.812-2.5-2.812-2.5-5-5"/><path fill="#1C4B83" d="M3 291h3v4H3l1.063 1.688c1.155 2.85.747 4.397-.063 7.312H3c-.982-4.053-1.16-7.835-1-12z"/><path fill="#C8EAD3" d="m238 267 1 3c-1.207 1.55-1.207 1.55-3 3-2.262-.145-2.262-.145-4.687-.812l-2.45-.645L227 271v-1l2.152-.402 2.786-.536 2.777-.527c2.238-.312 2.238-.312 3.285-1.535"/><path fill="#78CC6A" d="M234 221h2l1 8-1.875-1c-2.035-1.142-2.035-1.142-4.125-1 1.875-4.875 1.875-4.875 3-6"/><path fill="#5DC160" d="M283 194h2v3h2c-1.312 3.937-2.92 6.227-6 9v-4l2-1z"/><path fill="#80CC74" d="M257 187h3l-1 6-5 1 1-4h2z"/><path fill="#154A7D" d="M313 174c.364 4.242-.46 6.582-3 10h-2l1-9c3-1 3-1 4-1"/><path fill="#11545C" d="M308 168c4.776 1.642 8.794 4.265 13 7l-1 2-6-3v-2l-7-2z"/><path fill="#416994" d="m145 106 3 1v7l-6-1 .938-1.812c1.164-2.278 1.164-2.278 2.062-5.188"/><path fill="#52729A" d="m218 197 4 2c.188 2.875.188 2.875 0 6l-3 2z"/><path fill="#E4BC4C" d="M115 326h2c-.336 3.135-1.027 4.025-3.375 6.25C111 334 111 334 108 334v-2h3v-3h4z"/><path fill="#5D7DA8" d="M367 299h1c.235 4.82-.548 8.463-2 13h-3l1-8h3z"/><path fill="#E5BD44" d="m55 246-2 6h-6v-2c5.412-4 5.412-4 8-4"/><path fill="#8BD080" d="m242 209 1 4c-1.375 1.5-1.375 1.5-3 3-.714 2.103-.714 2.103-1 4l-4-1z"/><path fill="#91D081" d="M277 159h3l-2 4-.875 2.188C276 167 276 167 273.875 167.75L272 168c1.501-3.117 3.024-6.155 5-9"/><path fill="#5277A2" d="M352 30c3.394 3.126 5.606 5.565 7 10h-3v-2h-2z"/><path fill="#E6BD42" d="m42 324 7 1 1 7a279 279 0 0 1-3.437-2.312l-1.934-1.301C43 327 43 327 42 324"/><path fill="#E4C061" d="M68 240v2l-8 1-1 3-4-1c8.71-5 8.71-5 13-5"/><path fill="#446E98" d="m330 351 5 2c-2.386 1.892-4.072 3.024-7 4l-2-1v-2l3-1z"/><path fill="#16487C" d="M281 303c2.468 1.152 4.048 2.048 6 4l-5 2-2-2c.375-2.125.375-2.125 1-4"/><path fill="#2D5B8B" d="M268 77c3 0 3 0 5.688 2.25C276 82 276 82 276 86c-2.932-2.853-5.643-5.65-8-9"/><path fill="#124C86" d="m239 326-2 3c-1.945.293-1.945.293-4.125.188L229 329l-1-2c3.674-1.176 7.17-1.074 11-1"/><path fill="#9FD896" d="m176 254 1 2c-.777 1.727-.777 1.727-1.937 3.625L173 263h-3l3-6h2z"/><path fill="#2F516D" d="m43 248 6 1-2 1v2l-4 2c-1.125-3.75-1.125-3.75 0-6"/><path fill="#1A4E88" d="m149 150 4 1v3l3 1h-8z"/><path fill="#384D54" d="m48 331 3 1v2l2.938.875C57 336 57 336 58 338a187 187 0 0 1-4.437-1.25l-2.497-.703C49 335 49 335 48.215 332.89z"/><path fill="#C1E6C9" d="M261 143c4.128.607 7.332 2.038 11 4l-4 2v-2l-5-1v-2z"/><path fill="#87C782" d="M282.375 123.313 284 124c-2.463 2.463-4.707 2.998-8 4l-2-2c5.415-3.077 5.415-3.077 8.375-2.687"/><path fill="#EBBB41" d="M53 330h3l1 6-6-2c0-2 0-2 2-4"/><path fill="#8ED282" d="M153 282c0 2.621-.313 4.51-1 7h-3v2h-2c1.527-3.436 3.6-6.12 6-9"/><path fill="#F2CB62" d="m121 257 3 2v2h2l1 4h-2v-2h-2c-1.625-1.5-1.625-1.5-3-3z"/><path fill="#35555C" d="M52 243h6c-2.88 2.4-5.564 4.473-9 6v-3h3z"/><path fill="#486E96" d="m87 224 1 2h3l2 4-4 1c-2-3-2-3-2-7"/><path fill="#58BA5F" d="M308.563 165.938 311 166l1 3-2.375.375c-2.766.416-2.766.416-4.625 2.625a100 100 0 0 1 0-5c1-1 1-1 3.563-1.062"/><path fill="#17518C" d="M209 151v2l-7 1 1-3c2.49-1.245 3.41-.777 6 0"/><path fill="#164477" d="M193 142h8l-5 5-2-1v-2z"/><path fill="#386597" d="M236 46c4.192 1.048 5.216 1.918 8 5l-2 2z"/><path fill="#C8E5D5" d="M189 286c0 3 0 3-1.5 4.688L186 292l-2-1v2h-2c1.453-3.83 3.429-5.12 7-7"/><path fill="#5CB86D" d="m304 114-1 3c-3.803 1.69-6.053 2.199-10 1a875 875 0 0 1 4.375-2l2.46-1.125C302 114 302 114 304 114"/><path fill="#5C80A8" d="m27 19 1 4c-1.812 1.563-1.812 1.563-4 3l-3-1z"/><path fill="#5A84AE" d="m50 5 2 1v3c-1.812.688-1.812.688-4 1-1.75-1.437-1.75-1.437-3-3 2.375-1.062 2.375-1.062 5-2"/><path fill="#BCE3CE" d="M134 313h3l-1 7-3-1z"/><path fill="#C9E8D6" d="m138 297 3 2h-2l-1 8h-1q-.04-2.22-.062-4.437l-.036-2.497C137 298 137 298 138 297"/><path fill="#3A545A" d="M28 293h1a311 311 0 0 1 1.063 4.25l.597 2.39c.355 2.464.109 4.016-.66 6.36-2.21-3.314-2.225-4.345-2.125-8.187l.055-2.731z"/><path fill="#66C758" d="M178 292c.813 1.688.813 1.688 1 4-2.437 2.75-2.437 2.75-5 5v-3h2l.438-2.437C177 293 177 293 178 292"/><path fill="#96D58D" d="m194 233 1 3-1.875.75c-2.476 1.456-3.076 2.628-4.125 5.25l-2-1c1.375-2 1.375-2 3-4h2z"/><path fill="#5EBD67" d="M300 174h3c-1.312 3.937-2.92 6.227-6 9l1-5h2z"/><path fill="#145871" d="m283 117 3 2 2-1-1 4-5 1z"/><path fill="#6C8BAF" d="M18 28c1 3 1 3 1 6l-5 1 1-4h2z"/><path fill="#1E5B9C" d="M25 24q2.514.428 5 1l-2 4-4-4z"/><path fill="#446F9D" d="m35 13 4 2-5 3v-2l-2-1z"/><path fill="#4972A1" d="M323 9h6v3l-9 1 1-2h2z"/><path fill="#C4E9CC" d="M180 294c1.245 2.49.777 3.41 0 6l-5 1c3.875-5.875 3.875-5.875 5-7"/><path fill="#BFE7CA" d="M244 258h2l-1 5-4 1z"/><path fill="#5B7EA4" d="m136 136 7 3-3 1-1 3c-3-4.75-3-4.75-3-7"/><path fill="#2A5D94" d="m185 100 2 2c-.375 2.625-.375 2.625-1 5l-3-1v-5z"/><path fill="#577A9E" d="M141 94h4l1 7a141 141 0 0 1-5-5z"/><path fill="#718FB7" d="M363 48c1.884 3.265 2.493 6.281 3 10-3-2-3-2-3.75-4.437C362 51 362 51 363 48"/><path fill="#3A679D" d="M56 49c2.438.375 2.438.375 5 1l1 2-2 2-3-1 1-3z"/><path fill="#B3D8F7" d="m234 45 7 6-2 1-2-1v-2l-4-2z"/></svg>